<svg width="185" height="142" viewBox="0 0 185 142" fill="none" xmlns="http://www.w3.org/2000/svg">
<rect x="0.171875" y="0.605835" width="184.144" height="140.481" rx="15.1871" fill="white"/>
<path d="M126.303 64C127.902 71.8445 126.762 79.9999 123.076 87.1062C119.389 94.2125 113.377 99.8401 106.043 103.051C98.7096 106.261 90.4968 106.86 82.7747 104.748C75.0525 102.636 68.2878 97.9408 63.6086 91.4449C58.9294 84.949 56.6185 77.0453 57.0614 69.0518C57.5043 61.0583 60.6742 53.4583 66.0424 47.5191C71.4106 41.5798 78.6527 37.6605 86.5608 36.4146C94.469 35.1686 102.565 36.6715 109.5 40.6725" stroke="#40136C" stroke-width="8" stroke-linecap="round" stroke-linejoin="round"/>
<path d="M81.5 67.5L92 78L127 43" stroke="#40136C" stroke-width="8" stroke-linecap="round" stroke-linejoin="round"/>
</svg>
