<svg width="49" height="48" viewBox="0 0 49 48" fill="none" xmlns="http://www.w3.org/2000/svg">
<rect x="0.5" width="48" height="48" rx="8" fill="#28098A" fill-opacity="0.1"/>
<path d="M31.5 26C32.99 24.54 34.5 22.79 34.5 20.5C34.5 19.0413 33.9205 17.6424 32.8891 16.6109C31.8576 15.5795 30.4587 15 29 15C27.24 15 26 15.5 24.5 17C23 15.5 21.76 15 20 15C18.5413 15 17.1424 15.5795 16.1109 16.6109C15.0795 17.6424 14.5 19.0413 14.5 20.5C14.5 22.8 16 24.55 17.5 26L24.5 33L31.5 26Z" stroke="#28098A" stroke-width="2" stroke-linecap="round" stroke-linejoin="round"/>
</svg>
