<svg width="185" height="141" viewBox="0 0 185 141" fill="none" xmlns="http://www.w3.org/2000/svg">
<rect x="0.171875" y="0.253174" width="184.144" height="140.481" rx="15.1871" fill="white"/>
<path d="M63.4742 58.17C62.9634 55.8688 63.0418 53.4759 63.7023 51.2132C64.3627 48.9504 65.5838 46.891 67.2523 45.226C68.9209 43.561 70.9828 42.3442 73.2469 41.6885C75.5111 41.0327 77.9041 40.9593 80.2042 41.475C81.4702 39.495 83.2142 37.8656 85.2755 36.737C87.3369 35.6083 89.6491 35.0167 91.9992 35.0167C94.3493 35.0167 96.6616 35.6083 98.7229 36.737C100.784 37.8656 102.528 39.495 103.794 41.475C106.098 40.9571 108.495 41.0302 110.763 41.6875C113.03 42.3448 115.095 43.565 116.765 45.2345C118.434 46.9041 119.654 48.9687 120.312 51.2365C120.969 53.5042 121.042 55.9014 120.524 58.205C122.504 59.471 124.134 61.215 125.262 63.2763C126.391 65.3376 126.982 67.6499 126.982 70C126.982 72.3501 126.391 74.6623 125.262 76.7236C124.134 78.785 122.504 80.529 120.524 81.795C121.04 84.0951 120.966 86.4881 120.311 88.7523C119.655 91.0164 118.438 93.0783 116.773 94.7468C115.108 96.4154 113.049 97.6365 110.786 98.2969C108.523 98.9574 106.13 99.0358 103.829 98.525C102.565 100.513 100.819 102.149 98.7546 103.283C96.6898 104.416 94.3723 105.011 92.0167 105.011C89.6611 105.011 87.3436 104.416 85.2788 103.283C83.2139 102.149 81.4685 100.513 80.2042 98.525C77.9041 99.0407 75.5111 98.9672 73.2469 98.3115C70.9828 97.6558 68.9209 96.439 67.2523 94.774C65.5838 93.1089 64.3627 91.0496 63.7023 88.7868C63.0418 86.524 62.9634 84.1311 63.4742 81.83C61.4791 80.5673 59.8357 78.8206 58.6969 76.7522C57.5581 74.6839 56.9609 72.3611 56.9609 70C56.9609 67.6389 57.5581 65.3161 58.6969 63.2477C59.8357 61.1794 61.4791 59.4326 63.4742 58.17Z" stroke="#10D3F3" stroke-width="8" stroke-linecap="round" stroke-linejoin="round"/>
<path d="M102.5 59.5L81.5 80.5" stroke="#10D3F3" stroke-width="8" stroke-linecap="round" stroke-linejoin="round"/>
<path d="M81.5 59.5H81.535" stroke="#10D3F3" stroke-width="8" stroke-linecap="round" stroke-linejoin="round"/>
<path d="M102.5 80.5H102.535" stroke="#10D3F3" stroke-width="8" stroke-linecap="round" stroke-linejoin="round"/>
</svg>
