<svg width="185" height="141" viewBox="0 0 185 141" fill="none" xmlns="http://www.w3.org/2000/svg">
<rect x="0.28125" y="0.0128174" width="184.144" height="140.481" rx="15.1871" fill="white"/>
<path d="M106 101.5V94.5C106 90.787 104.525 87.226 101.899 84.6005C99.274 81.975 95.713 80.5 92 80.5H71C67.287 80.5 63.726 81.975 61.1005 84.6005C58.475 87.226 57 90.787 57 94.5V101.5" stroke="#40136C" stroke-width="8" stroke-linecap="round" stroke-linejoin="round"/>
<path d="M81.5 66.5C89.232 66.5 95.5 60.232 95.5 52.5C95.5 44.768 89.232 38.5 81.5 38.5C73.768 38.5 67.5 44.768 67.5 52.5C67.5 60.232 73.768 66.5 81.5 66.5Z" stroke="#40136C" stroke-width="8" stroke-linecap="round" stroke-linejoin="round"/>
<path d="M127 101.5V94.5C126.998 91.398 125.965 88.3847 124.065 85.9331C122.164 83.4815 119.503 81.7304 116.5 80.955" stroke="#40136C" stroke-width="8" stroke-linecap="round" stroke-linejoin="round"/>
<path d="M106 38.955C109.011 39.726 111.681 41.4774 113.587 43.933C115.493 46.3887 116.527 49.4089 116.527 52.5175C116.527 55.6261 115.493 58.6462 113.587 61.1019C111.681 63.5575 109.011 65.3089 106 66.08" stroke="#40136C" stroke-width="8" stroke-linecap="round" stroke-linejoin="round"/>
</svg>
