<svg width="49" height="48" viewBox="0 0 49 48" fill="none" xmlns="http://www.w3.org/2000/svg">
<rect x="0.5" width="48" height="48" rx="8" fill="#28098A" fill-opacity="0.1"/>
<path d="M32.5 25C32.5 30 29 32.5 24.84 33.95C24.6222 34.0238 24.3855 34.0202 24.17 33.94C20 32.5 16.5 30 16.5 25V18C16.5 17.7347 16.6054 17.4804 16.7929 17.2929C16.9804 17.1053 17.2348 17 17.5 17C19.5 17 22 15.8 23.74 14.28C23.9519 14.099 24.2214 13.9995 24.5 13.9995C24.7786 13.9995 25.0481 14.099 25.26 14.28C27.01 15.81 29.5 17 31.5 17C31.7652 17 32.0196 17.1053 32.2071 17.2929C32.3946 17.4804 32.5 17.7347 32.5 18V25Z" stroke="#28098A" stroke-width="2" stroke-linecap="round" stroke-linejoin="round"/>
</svg>
