<svg width="48" height="49" viewBox="0 0 48 49" fill="none" xmlns="http://www.w3.org/2000/svg">
<rect y="0.301758" width="48" height="48" rx="8" fill="#28098A" fill-opacity="0.1"/>
<path d="M30 14.3018H18C16.8954 14.3018 16 15.1972 16 16.3018V32.3018C16 33.4063 16.8954 34.3018 18 34.3018H30C31.1046 34.3018 32 33.4063 32 32.3018V16.3018C32 15.1972 31.1046 14.3018 30 14.3018Z" stroke="#28098A" stroke-width="2" stroke-linecap="round" stroke-linejoin="round"/>
<path d="M21 34.3018V30.3018H27V34.3018" stroke="#28098A" stroke-width="2" stroke-linecap="round" stroke-linejoin="round"/>
<path d="M20 18.3018H20.01" stroke="#28098A" stroke-width="2" stroke-linecap="round" stroke-linejoin="round"/>
<path d="M28 18.3018H28.01" stroke="#28098A" stroke-width="2" stroke-linecap="round" stroke-linejoin="round"/>
<path d="M24 18.3018H24.01" stroke="#28098A" stroke-width="2" stroke-linecap="round" stroke-linejoin="round"/>
<path d="M24 22.3018H24.01" stroke="#28098A" stroke-width="2" stroke-linecap="round" stroke-linejoin="round"/>
<path d="M24 26.3018H24.01" stroke="#28098A" stroke-width="2" stroke-linecap="round" stroke-linejoin="round"/>
<path d="M28 22.3018H28.01" stroke="#28098A" stroke-width="2" stroke-linecap="round" stroke-linejoin="round"/>
<path d="M28 26.3018H28.01" stroke="#28098A" stroke-width="2" stroke-linecap="round" stroke-linejoin="round"/>
<path d="M20 22.3018H20.01" stroke="#28098A" stroke-width="2" stroke-linecap="round" stroke-linejoin="round"/>
<path d="M20 26.3018H20.01" stroke="#28098A" stroke-width="2" stroke-linecap="round" stroke-linejoin="round"/>
</svg>
