<svg width="185" height="141" viewBox="0 0 185 141" fill="none" xmlns="http://www.w3.org/2000/svg">
<rect x="0.280273" y="0.0128174" width="184.144" height="140.481" rx="15.1871" fill="white"/>
<path d="M101 76C101.6 73 103.1 70.9 105.5 68.5C108.5 65.8 110 61.9 110 58C110 53.2261 108.104 48.6477 104.728 45.2721C101.352 41.8964 96.7739 40 92 40C87.2261 40 82.6477 41.8964 79.2721 45.2721C75.8964 48.6477 74 53.2261 74 58C74 61 74.6 64.6 78.5 68.5C80.6 70.6 82.4 73 83 76" stroke="#28098A" stroke-width="5" stroke-linecap="round" stroke-linejoin="round"/>
<path d="M83 88H101" stroke="#28098A" stroke-width="5" stroke-linecap="round" stroke-linejoin="round"/>
<path d="M86 100H98" stroke="#28098A" stroke-width="5" stroke-linecap="round" stroke-linejoin="round"/>
</svg>
