<svg width="185" height="142" viewBox="0 0 185 142" fill="none" xmlns="http://www.w3.org/2000/svg">
<rect x="0.170898" y="0.605835" width="184.144" height="140.481" rx="15.1871" fill="white"/>
<path d="M120 74.5C120 92 107.75 100.75 93.19 105.825C92.4276 106.083 91.5994 106.071 90.845 105.79C76.25 100.75 64 92 64 74.5V50C64 49.0717 64.3687 48.1815 65.0251 47.5251C65.6815 46.8687 66.5717 46.5 67.5 46.5C74.5 46.5 83.25 42.3 89.34 36.98C90.0815 36.3465 91.0247 35.9984 92 35.9984C92.9753 35.9984 93.9185 36.3465 94.66 36.98C100.785 42.335 109.5 46.5 116.5 46.5C117.428 46.5 118.318 46.8687 118.975 47.5251C119.631 48.1815 120 49.0717 120 50V74.5Z" stroke="#40136C" stroke-width="8" stroke-linecap="round" stroke-linejoin="round"/>
</svg>
