<svg width="48" height="49" viewBox="0 0 48 49" fill="none" xmlns="http://www.w3.org/2000/svg">
<rect y="0.301758" width="48" height="48" rx="8" fill="#28098A" fill-opacity="0.1"/>
<path d="M28 33.3018V31.3018C28 30.2409 27.5786 29.2235 26.8284 28.4733C26.0783 27.7232 25.0609 27.3018 24 27.3018H18C16.9391 27.3018 15.9217 27.7232 15.1716 28.4733C14.4214 29.2235 14 30.2409 14 31.3018V33.3018" stroke="#28098A" stroke-width="2" stroke-linecap="round" stroke-linejoin="round"/>
<path d="M21 23.3018C23.2091 23.3018 25 21.5109 25 19.3018C25 17.0926 23.2091 15.3018 21 15.3018C18.7909 15.3018 17 17.0926 17 19.3018C17 21.5109 18.7909 23.3018 21 23.3018Z" stroke="#28098A" stroke-width="2" stroke-linecap="round" stroke-linejoin="round"/>
<path d="M34 33.3016V31.3016C33.9993 30.4154 33.7044 29.5544 33.1614 28.854C32.6184 28.1535 31.8581 27.6532 31 27.4316" stroke="#28098A" stroke-width="2" stroke-linecap="round" stroke-linejoin="round"/>
<path d="M28 15.4316C28.8604 15.6519 29.623 16.1523 30.1676 16.854C30.7122 17.5556 31.0078 18.4185 31.0078 19.3066C31.0078 20.1948 30.7122 21.0577 30.1676 21.7593C29.623 22.4609 28.8604 22.9613 28 23.1816" stroke="#28098A" stroke-width="2" stroke-linecap="round" stroke-linejoin="round"/>
</svg>
