<svg width="48" height="49" viewBox="0 0 48 49" fill="none" xmlns="http://www.w3.org/2000/svg">
<rect y="0.301758" width="48" height="48" rx="8" fill="#28098A" fill-opacity="0.1"/>
<path d="M28 32.3018V16.3018C28 15.7713 27.7893 15.2626 27.4142 14.8875C27.0391 14.5125 26.5304 14.3018 26 14.3018H22C21.4696 14.3018 20.9609 14.5125 20.5858 14.8875C20.2107 15.2626 20 15.7713 20 16.3018V32.3018" stroke="#28098A" stroke-width="2" stroke-linecap="round" stroke-linejoin="round"/>
<path d="M32 18.3018H16C14.8954 18.3018 14 19.1972 14 20.3018V30.3018C14 31.4063 14.8954 32.3018 16 32.3018H32C33.1046 32.3018 34 31.4063 34 30.3018V20.3018C34 19.1972 33.1046 18.3018 32 18.3018Z" stroke="#28098A" stroke-width="2" stroke-linecap="round" stroke-linejoin="round"/>
</svg>
