<svg width="185" height="141" viewBox="0 0 185 141" fill="none" xmlns="http://www.w3.org/2000/svg">
<rect x="0.170898" y="0.253174" width="184.144" height="140.481" rx="15.1871" fill="white"/>
<path d="M127.173 74.3862H102.494C101.26 74.3862 100.31 73.437 100.31 72.2023V47.5233C100.31 46.2886 99.2647 45.2467 98.0338 45.3394C89.4911 46.0031 82.0864 50.3708 77.1516 56.8265C74.304 55.2136 70.9818 54.2644 67.4707 54.2644C56.2693 54.2644 47.252 63.3782 47.252 74.4832C47.252 85.5882 56.3657 94.702 67.4707 94.702C71.0784 94.702 74.4006 93.6563 77.3404 92.0435C82.6574 98.9733 90.9149 103.531 100.024 103.623C115.589 103.812 128.311 91.9467 129.449 76.7596C129.546 75.4285 128.5 74.3866 127.173 74.3866L127.173 74.3862ZM52.28 74.4789C52.28 66.1252 59.0208 59.3886 67.3703 59.3886C75.724 59.3886 82.4606 66.1294 82.4606 74.4789C82.4606 82.8326 75.7198 89.5692 67.3703 89.5692C59.0203 89.5729 52.28 82.7357 52.28 74.4789Z" fill="#10D3F3"/>
<path d="M110.466 37.368C109.231 37.2716 108.189 38.3172 108.189 39.5519V64.2309C108.189 65.4656 109.139 66.4148 110.373 66.4148H135.052C136.287 66.4148 137.329 65.3692 137.236 64.1383C136.191 49.8966 124.8 38.5063 110.466 37.3682L110.466 37.368Z" fill="#10D3F3"/>
</svg>
