<svg width="185" height="142" viewBox="0 0 185 142" fill="none" xmlns="http://www.w3.org/2000/svg">
<rect x="0.170898" y="0.605835" width="184.144" height="140.481" rx="15.1871" fill="white"/>
<path d="M88.5 88.5L95.5 95.5C96.1894 96.1894 97.0079 96.7363 97.9087 97.1095C98.8095 97.4826 99.775 97.6746 100.75 97.6746C101.725 97.6746 102.69 97.4826 103.591 97.1095C104.492 96.7363 105.311 96.1894 106 95.5C106.689 94.8106 107.236 93.9921 107.609 93.0913C107.983 92.1905 108.175 91.225 108.175 90.25C108.175 89.275 107.983 88.3095 107.609 87.4087C107.236 86.5079 106.689 85.6894 106 85" stroke="#40136C" stroke-width="8" stroke-linecap="round" stroke-linejoin="round"/>
<path d="M98.9998 78.0001L107.75 86.7501C109.142 88.1424 111.031 88.9247 113 88.9247C114.969 88.9247 116.857 88.1424 118.25 86.7501C119.642 85.3577 120.424 83.4692 120.424 81.5001C120.424 79.5309 119.642 77.6424 118.25 76.2501L104.67 62.6701C102.701 60.7037 100.032 59.5993 97.2498 59.5993C94.4673 59.5993 91.7986 60.7037 89.8298 62.6701L86.7498 65.7501C85.3574 67.1424 83.4689 67.9247 81.4998 67.9247C79.5307 67.9247 77.6422 67.1424 76.2498 65.7501C74.8574 64.3577 74.0752 62.4692 74.0752 60.5001C74.0752 58.5309 74.8574 56.6424 76.2498 55.2501L86.0848 45.4151C89.2777 42.2306 93.4415 40.202 97.9171 39.6505C102.393 39.0989 106.924 40.056 110.795 42.3701L112.44 43.3501C113.93 44.2495 115.702 44.5615 117.41 44.2251L123.5 43.0001" stroke="#40136C" stroke-width="8" stroke-linecap="round" stroke-linejoin="round"/>
<path d="M123.5 39.5L127 78H120" stroke="#40136C" stroke-width="8" stroke-linecap="round" stroke-linejoin="round"/>
<path d="M60.5 39.5L57 78L79.75 100.75C81.1424 102.142 83.0309 102.925 85 102.925C86.9691 102.925 88.8576 102.142 90.25 100.75C91.6424 99.3576 92.4246 97.4691 92.4246 95.5C92.4246 93.5309 91.6424 91.6424 90.25 90.25" stroke="#40136C" stroke-width="8" stroke-linecap="round" stroke-linejoin="round"/>
<path d="M60.5 43H88.5" stroke="#40136C" stroke-width="8" stroke-linecap="round" stroke-linejoin="round"/>
</svg>
