<svg width="185" height="141" viewBox="0 0 185 141" fill="none" xmlns="http://www.w3.org/2000/svg">
<rect x="0.280273" y="0.0128174" width="184.144" height="140.481" rx="15.1871" fill="white"/>
<path d="M82.5003 89.2516H101.5C102.398 89.2516 103.15 88.9482 103.757 88.3412C104.364 87.7343 104.667 86.9822 104.667 86.085C104.667 85.1877 104.364 84.4357 103.757 83.8287C103.15 83.2218 102.398 82.9183 101.5 82.9183H82.5003C81.6031 82.9183 80.851 83.2218 80.2441 83.8287C79.6371 84.4357 79.3337 85.1877 79.3337 86.085C79.3337 86.9822 79.6371 87.7343 80.2441 88.3412C80.851 88.9482 81.6031 89.2516 82.5003 89.2516ZM82.5003 76.585H101.5C102.398 76.585 103.15 76.2815 103.757 75.6745C104.364 75.0676 104.667 74.3155 104.667 73.4183C104.667 72.5211 104.364 71.769 103.757 71.162C103.15 70.5551 102.398 70.2516 101.5 70.2516H82.5003C81.6031 70.2516 80.851 70.5551 80.2441 71.162C79.6371 71.769 79.3337 72.5211 79.3337 73.4183C79.3337 74.3155 79.6371 75.0676 80.2441 75.6745C80.851 76.2815 81.6031 76.585 82.5003 76.585ZM73.0003 101.918C71.2587 101.918 69.7677 101.298 68.5274 100.058C67.2871 98.8176 66.667 97.3266 66.667 95.585V44.9183C66.667 43.1766 67.2871 41.6857 68.5274 40.4454C69.7677 39.2051 71.2587 38.585 73.0003 38.585H95.7212C96.5656 38.585 97.3705 38.7433 98.1357 39.06C98.901 39.3766 99.5739 39.8252 100.154 40.4058L115.513 55.7641C116.093 56.3447 116.542 57.0176 116.859 57.7829C117.175 58.5482 117.334 59.353 117.334 60.1975V95.585C117.334 97.3266 116.714 98.8176 115.473 100.058C114.233 101.298 112.742 101.918 111 101.918H73.0003ZM95.167 57.585V44.9183H73.0003V95.585H111V60.7516H98.3337C97.4364 60.7516 96.6844 60.4482 96.0774 59.8412C95.4705 59.2343 95.167 58.4822 95.167 57.585Z" fill="#28098A"/>
</svg>
