<svg width="42" height="42" viewBox="0 0 42 42" fill="none" xmlns="http://www.w3.org/2000/svg">
<rect x="0.300781" y="0.334961" width="41.3008" height="41.3008" rx="6.88346" fill="#28098A" fill-opacity="0.1"/>
<path d="M28.6949 20.9852C29.1699 20.9852 29.5597 20.5989 29.5124 20.1265C29.314 18.1511 28.4386 16.3051 27.0346 14.9014C25.6306 13.4977 23.7844 12.6227 21.8089 12.4248C21.3357 12.3775 20.9502 12.7673 20.9502 13.2422V20.1257C20.9502 20.3539 21.0408 20.5727 21.2022 20.7341C21.3636 20.8954 21.5824 20.9861 21.8106 20.9861L28.6949 20.9852Z" stroke="#28098A" stroke-width="1.72086" stroke-linecap="round" stroke-linejoin="round"/>
<path d="M28.8759 24.3322C28.3285 25.6267 27.4724 26.7674 26.3823 27.6546C25.2922 28.5418 24.0014 29.1484 22.6227 29.4215C21.244 29.6945 19.8194 29.6257 18.4734 29.221C17.1275 28.8163 15.9012 28.0881 14.9017 27.0999C13.9022 26.1118 13.16 24.8939 12.7399 23.5526C12.3199 22.2114 12.2348 20.7877 12.4921 19.4059C12.7494 18.0242 13.3413 16.7265 14.2159 15.6264C15.0906 14.5262 16.2215 13.6571 17.5096 13.095" stroke="#28098A" stroke-width="1.72086" stroke-linecap="round" stroke-linejoin="round"/>
</svg>
