<svg width="185" height="141" viewBox="0 0 185 141" fill="none" xmlns="http://www.w3.org/2000/svg">
<rect x="0.170898" y="0.354248" width="184.144" height="140.481" rx="15.1871" fill="white"/>
<path d="M84.3332 42.9109L92.2432 35.001M76.4233 86.4156L108.063 54.7758M92.2432 106.19L100.153 98.2805M110.041 98.2805C112.663 98.2805 115.178 97.2388 117.032 95.3846C118.886 93.5303 119.928 91.0154 119.928 88.3931C119.928 85.7708 118.886 83.2559 117.032 81.4016C115.178 79.5474 112.663 78.5057 110.041 78.5057C107.418 78.5057 104.903 79.5474 103.049 81.4016C101.195 83.2559 100.153 85.7708 100.153 88.3931C100.153 91.0154 101.195 93.5303 103.049 95.3846C104.903 97.2388 107.418 98.2805 110.041 98.2805ZM74.4458 62.6858C77.0681 62.6858 79.583 61.6441 81.4373 59.7898C83.2915 57.9356 84.3332 55.4207 84.3332 52.7984C84.3332 50.176 83.2915 47.6611 81.4373 45.8069C79.583 43.9526 77.0681 42.9109 74.4458 42.9109C71.8235 42.9109 69.3086 43.9526 67.4543 45.8069C65.6001 47.6611 64.5584 50.176 64.5584 52.7984C64.5584 55.4207 65.6001 57.9356 67.4543 59.7898C69.3086 61.6441 71.8235 62.6858 74.4458 62.6858ZM66.5359 106.19C69.1582 106.19 71.6731 105.149 73.5273 103.295C75.3816 101.44 76.4233 98.9254 76.4233 96.3031C76.4233 93.6807 75.3816 91.1658 73.5273 89.3116C71.6731 87.4573 69.1582 86.4156 66.5359 86.4156C63.9136 86.4156 61.3987 87.4573 59.5444 89.3116C57.6901 91.1658 56.6484 93.6807 56.6484 96.3031C56.6484 98.9254 57.6901 101.44 59.5444 103.295C61.3987 105.149 63.9136 106.19 66.5359 106.19ZM117.951 54.7758C120.573 54.7758 123.088 53.7341 124.942 51.8799C126.796 50.0256 127.838 47.5107 127.838 44.8884C127.838 42.2661 126.796 39.7512 124.942 37.8969C123.088 36.0427 120.573 35.001 117.951 35.001C115.328 35.001 112.813 36.0427 110.959 37.8969C109.105 39.7512 108.063 42.2661 108.063 44.8884C108.063 47.5107 109.105 50.0256 110.959 51.8799C112.813 53.7341 115.328 54.7758 117.951 54.7758Z" stroke="#28098A" stroke-width="3.79677" stroke-linecap="round" stroke-linejoin="round"/>
</svg>
