<svg width="185" height="142" viewBox="0 0 185 142" fill="none" xmlns="http://www.w3.org/2000/svg">
<rect x="0.280273" y="0.76123" width="184.144" height="140.481" rx="15.1871" fill="white"/>
<path d="M66.6663 99.5C64.9247 99.5 63.4337 98.8799 62.1934 97.6396C60.9531 96.3993 60.333 94.9084 60.333 93.1667V58.3334C60.333 56.5917 60.9531 55.1007 62.1934 53.8605C63.4337 52.6202 64.9247 52 66.6663 52H79.333V45.6667C79.333 43.925 79.9531 42.4341 81.1934 41.1938C82.4337 39.9535 83.9247 39.3334 85.6663 39.3334H98.333C100.075 39.3334 101.566 39.9535 102.806 41.1938C104.046 42.4341 104.666 43.925 104.666 45.6667V52H117.333C119.075 52 120.566 52.6202 121.806 53.8605C123.046 55.1007 123.666 56.5917 123.666 58.3334V93.1667C123.666 94.9084 123.046 96.3993 121.806 97.6396C120.566 98.8799 119.075 99.5 117.333 99.5H66.6663ZM85.6663 52H98.333V45.6667H85.6663V52ZM117.333 80.5H101.5V83.6667C101.5 84.5639 101.196 85.316 100.589 85.923C99.9823 86.5299 99.2302 86.8334 98.333 86.8334H85.6663C84.7691 86.8334 84.017 86.5299 83.4101 85.923C82.8031 85.316 82.4997 84.5639 82.4997 83.6667V80.5H66.6663V93.1667H117.333V80.5ZM88.833 80.5H95.1663V74.1667H88.833V80.5ZM66.6663 74.1667H82.4997V71C82.4997 70.1028 82.8031 69.3507 83.4101 68.7438C84.017 68.1368 84.7691 67.8334 85.6663 67.8334H98.333C99.2302 67.8334 99.9823 68.1368 100.589 68.7438C101.196 69.3507 101.5 70.1028 101.5 71V74.1667H117.333V58.3334H66.6663V74.1667Z" fill="#28098A"/>
</svg>
