<svg width="185" height="141" viewBox="0 0 185 141" fill="none" xmlns="http://www.w3.org/2000/svg">
<rect x="0.280273" y="0.000976562" width="184.144" height="140.481" rx="15.1871" fill="white"/>
<path d="M82.5003 89H101.5C102.398 89 103.15 88.6966 103.757 88.0896C104.364 87.4827 104.667 86.7306 104.667 85.8334C104.667 84.9361 104.364 84.1841 103.757 83.5771C103.15 82.9702 102.398 82.6667 101.5 82.6667H82.5003C81.6031 82.6667 80.851 82.9702 80.2441 83.5771C79.6371 84.1841 79.3337 84.9361 79.3337 85.8334C79.3337 86.7306 79.6371 87.4827 80.2441 88.0896C80.851 88.6966 81.6031 89 82.5003 89ZM82.5003 76.3334H101.5C102.398 76.3334 103.15 76.0299 103.757 75.423C104.364 74.816 104.667 74.0639 104.667 73.1667C104.667 72.2695 104.364 71.5174 103.757 70.9105C103.15 70.3035 102.398 70 101.5 70H82.5003C81.6031 70 80.851 70.3035 80.2441 70.9105C79.6371 71.5174 79.3337 72.2695 79.3337 73.1667C79.3337 74.0639 79.6371 74.816 80.2441 75.423C80.851 76.0299 81.6031 76.3334 82.5003 76.3334ZM73.0003 101.667C71.2587 101.667 69.7677 101.047 68.5274 99.8063C67.2871 98.566 66.667 97.075 66.667 95.3334V44.6667C66.667 42.925 67.2871 41.4341 68.5274 40.1938C69.7677 38.9535 71.2587 38.3334 73.0003 38.3334H95.7212C96.5656 38.3334 97.3705 38.4917 98.1357 38.8084C98.901 39.125 99.5739 39.5737 100.154 40.1542L115.513 55.5125C116.093 56.0931 116.542 56.766 116.859 57.5313C117.175 58.2966 117.334 59.1014 117.334 59.9459V95.3334C117.334 97.075 116.714 98.566 115.473 99.8063C114.233 101.047 112.742 101.667 111 101.667H73.0003ZM95.167 57.3334V44.6667H73.0003V95.3334H111V60.5H98.3337C97.4364 60.5 96.6844 60.1966 96.0774 59.5896C95.4705 58.9827 95.167 58.2306 95.167 57.3334Z" fill="#10D3F3"/>
</svg>
