<svg width="42" height="42" viewBox="0 0 42 42" fill="none" xmlns="http://www.w3.org/2000/svg">
<rect x="0.300781" y="0.167603" width="41.3008" height="41.3008" rx="6.88346" fill="#28098A" fill-opacity="0.1"/>
<path d="M27.8343 21.6785C27.8343 25.9807 24.8228 28.1318 21.2434 29.3794C21.056 29.4429 20.8524 29.4399 20.6669 29.3708C17.0789 28.1318 14.0674 25.9807 14.0674 21.6785V15.6555C14.0674 15.4273 14.158 15.2084 14.3194 15.0471C14.4808 14.8857 14.6996 14.7951 14.9278 14.7951C16.6487 14.7951 18.7998 13.7625 20.2969 12.4547C20.4792 12.2989 20.7111 12.2134 20.9508 12.2134C21.1906 12.2134 21.4225 12.2989 21.6048 12.4547C23.1105 13.7711 25.253 14.7951 26.9739 14.7951C27.2021 14.7951 27.4209 14.8857 27.5823 15.0471C27.7436 15.2084 27.8343 15.4273 27.8343 15.6555V21.6785Z" stroke="#28098A" stroke-width="1.72086" stroke-linecap="round" stroke-linejoin="round"/>
</svg>
