<svg width="185" height="141" viewBox="0 0 185 141" fill="none" xmlns="http://www.w3.org/2000/svg">
<rect x="0.170898" y="0.00146484" width="184.144" height="140.481" rx="15.1871" fill="white"/>
<path d="M127.173 74.1345H102.494C101.26 74.1345 100.31 73.1853 100.31 71.9506V47.2716C100.31 46.0368 99.2647 44.995 98.0338 45.0876C89.4911 45.7513 82.0864 50.1191 77.1516 56.5748C74.304 54.9619 70.9818 54.0127 67.4707 54.0127C56.2693 54.0127 47.252 63.1265 47.252 74.2315C47.252 85.3365 56.3657 94.4503 67.4707 94.4503C71.0784 94.4503 74.4006 93.4046 77.3404 91.7918C82.6574 98.7216 90.9149 103.279 100.024 103.371C115.589 103.56 128.311 91.6949 129.449 76.5079C129.546 75.1768 128.5 74.1349 127.173 74.1349L127.173 74.1345ZM52.28 74.2272C52.28 65.8735 59.0208 59.1369 67.3703 59.1369C75.724 59.1369 82.4606 65.8777 82.4606 74.2272C82.4606 82.5808 75.7198 89.3175 67.3703 89.3175C59.0203 89.3212 52.28 82.484 52.28 74.2272Z" fill="#10D3F3"/>
<path d="M110.466 37.1163C109.231 37.0199 108.189 38.0655 108.189 39.3002V63.9792C108.189 65.2139 109.139 66.1631 110.373 66.1631H135.052C136.287 66.1631 137.329 65.1175 137.236 63.8866C136.191 49.6449 124.8 38.2546 110.466 37.1165L110.466 37.1163Z" fill="#10D3F3"/>
</svg>
