<svg width="48" height="49" viewBox="0 0 48 49" fill="none" xmlns="http://www.w3.org/2000/svg">
<circle cx="24" cy="24.5" r="24" fill="#28098A"/>
<path d="M32.21 21.32L26 15.28C25.474 14.7799 24.7759 14.501 24.05 14.501C23.3241 14.501 22.626 14.7799 22.1 15.28L15.89 21.28C15.6141 21.5209 15.3922 21.8173 15.2388 22.1499C15.0854 22.4825 15.004 22.8438 15 23.21V31.79C15.0105 32.5176 15.309 33.2114 15.8301 33.7194C16.3512 34.2273 17.0524 34.508 17.78 34.5H30.22C30.9476 34.508 31.6488 34.2273 32.1699 33.7194C32.691 33.2114 32.9895 32.5176 33 31.79V23.21C32.9992 22.8585 32.929 22.5106 32.7935 22.1862C32.6579 21.8619 32.4596 21.5675 32.21 21.32ZM23.44 16.72C23.593 16.5802 23.7927 16.5026 24 16.5026C24.2073 16.5026 24.407 16.5802 24.56 16.72L30 22L24.53 27.28C24.377 27.4199 24.1773 27.4974 23.97 27.4974C23.7627 27.4974 23.563 27.4199 23.41 27.28L18 22L23.44 16.72ZM31 31.79C30.9871 31.9863 30.8987 32.17 30.7532 32.3024C30.6078 32.4348 30.4166 32.5056 30.22 32.5H17.78C17.5834 32.5056 17.3922 32.4348 17.2468 32.3024C17.1013 32.17 17.0129 31.9863 17 31.79V23.85L21.05 27.75L19.39 29.35C19.2037 29.5374 19.0992 29.7908 19.0992 30.055C19.0992 30.3192 19.2037 30.5727 19.39 30.76C19.4829 30.8575 19.5946 30.9352 19.7184 30.9885C19.8421 31.0418 19.9753 31.0695 20.11 31.07C20.3675 31.069 20.6146 30.9687 20.8 30.79L22.57 29.09C23.0096 29.3587 23.5148 29.5008 24.03 29.5008C24.5452 29.5008 25.0504 29.3587 25.49 29.09L27.26 30.79C27.4454 30.9687 27.6925 31.069 27.95 31.07C28.0847 31.0695 28.2179 31.0418 28.3416 30.9885C28.4654 30.9352 28.5771 30.8575 28.67 30.76C28.8563 30.5727 28.9608 30.3192 28.9608 30.055C28.9608 29.7908 28.8563 29.5374 28.67 29.35L27 27.75L31 23.85V31.79Z" fill="#F0FDF4"/>
</svg>
