<svg width="48" height="48" viewBox="0 0 48 48" fill="none" xmlns="http://www.w3.org/2000/svg">
<circle cx="24" cy="24" r="24" fill="#28098A"/>
<path d="M30.0009 16.48C28.4096 14.8887 26.2513 13.9948 24.0009 13.9948C21.7505 13.9948 19.5922 14.8887 18.0009 16.48C16.4096 18.0713 15.5156 20.2296 15.5156 22.48C15.5156 24.7305 16.4096 26.8887 18.0009 28.48L23.2709 33.76C23.3639 33.8538 23.4745 33.9282 23.5963 33.9789C23.7182 34.0297 23.8489 34.0558 23.9809 34.0558C24.1129 34.0558 24.2436 34.0297 24.3655 33.9789C24.4873 33.9282 24.5979 33.8538 24.6909 33.76L30.0009 28.43C31.5856 26.8454 32.4758 24.6961 32.4758 22.455C32.4758 20.214 31.5856 18.0647 30.0009 16.48ZM28.5709 27L24.0009 31.59L19.4309 27C18.5281 26.0963 17.9134 24.9453 17.6646 23.6923C17.4158 22.4394 17.5441 21.1408 18.0332 19.9607C18.5223 18.7806 19.3503 17.7721 20.4125 17.0625C21.4748 16.3529 22.7235 15.9742 24.0009 15.9742C25.2783 15.9742 26.5271 16.3529 27.5893 17.0625C28.6515 17.7721 29.4795 18.7806 29.9686 19.9607C30.4577 21.1408 30.586 22.4394 30.3372 23.6923C30.0884 24.9453 29.4738 26.0963 28.5709 27ZM21.0009 19.41C20.1936 20.2198 19.7403 21.3166 19.7403 22.46C19.7403 23.6035 20.1936 24.7003 21.0009 25.51C21.6007 26.1108 22.3645 26.5211 23.1966 26.6894C24.0286 26.8578 24.8919 26.7766 25.678 26.4562C26.4641 26.1358 27.1381 25.5903 27.6154 24.8883C28.0927 24.1863 28.352 23.3589 28.3609 22.51C28.3654 21.9432 28.2562 21.3813 28.0398 20.8574C27.8234 20.3335 27.5041 19.8584 27.1009 19.46C26.7046 19.0546 26.232 18.7316 25.7103 18.5095C25.1887 18.2874 24.6282 18.1707 24.0613 18.1661C23.4944 18.1614 22.9321 18.2689 22.4069 18.4824C21.8816 18.6959 21.4038 19.0112 21.0009 19.41ZM25.6909 24.09C25.3119 24.4748 24.8111 24.7159 24.274 24.7723C23.7369 24.8286 23.197 24.6967 22.7464 24.399C22.2959 24.1012 21.9627 23.6563 21.8039 23.1401C21.6451 22.624 21.6706 22.0687 21.8759 21.5692C22.0812 21.0697 22.4536 20.657 22.9295 20.4018C23.4054 20.1465 23.9552 20.0644 24.4848 20.1696C25.0145 20.2749 25.4912 20.5608 25.8334 20.9786C26.1756 21.3963 26.3621 21.92 26.3609 22.46C26.3464 23.0773 26.0874 23.6636 25.6409 24.09H25.6909Z" fill="#F0FDF4"/>
</svg>
