<svg width="49" height="49" viewBox="0 0 49 49" fill="none" xmlns="http://www.w3.org/2000/svg">
<circle cx="24.5" cy="24.5" r="24" fill="#28098A"/>
<path d="M33.5 14.5H15.5C15.2348 14.5 14.9804 14.6054 14.7929 14.7929C14.6054 14.9804 14.5 15.2348 14.5 15.5V33.5C14.5 33.7652 14.6054 34.0196 14.7929 34.2071C14.9804 34.3946 15.2348 34.5 15.5 34.5H33.5C33.7652 34.5 34.0196 34.3946 34.2071 34.2071C34.3946 34.0196 34.5 33.7652 34.5 33.5V15.5C34.5 15.2348 34.3946 14.9804 34.2071 14.7929C34.0196 14.6054 33.7652 14.5 33.5 14.5ZM20.5 32.5H16.5V28.5H20.5V32.5ZM20.5 26.5H16.5V22.5H20.5V26.5ZM20.5 20.5H16.5V16.5H20.5V20.5ZM26.5 32.5H22.5V28.5H26.5V32.5ZM26.5 26.5H22.5V22.5H26.5V26.5ZM26.5 20.5H22.5V16.5H26.5V20.5ZM32.5 32.5H28.5V28.5H32.5V32.5ZM32.5 26.5H28.5V22.5H32.5V26.5ZM32.5 20.5H28.5V16.5H32.5V20.5Z" fill="#F0FDF4"/>
</svg>
