<svg width="50" height="50" viewBox="0 0 50 50" fill="none" xmlns="http://www.w3.org/2000/svg">
<rect width="50" height="50" rx="25" fill="#28098A"/>
<path fill-rule="evenodd" clip-rule="evenodd" d="M25.3428 23.1273H24.6398C24.1477 23.1273 23.7435 22.7131 23.7435 22.1909V21.9748C23.6029 21.9388 23.4798 21.8848 23.3392 21.8127L23.1986 21.9568C22.8472 22.3169 22.2496 22.3169 21.8981 21.9568L21.406 21.4526C21.2479 21.2905 21.1424 21.0564 21.1424 20.8043C21.1424 20.5522 21.2479 20.3181 21.406 20.1381L21.5642 19.994C21.4939 19.85 21.4412 19.7239 21.406 19.5798H21.1951C20.6855 19.5798 20.2812 19.1657 20.2812 18.6435V17.9412C20.2812 17.419 20.6855 17.0048 21.1951 17.0048H21.406C21.4412 16.8608 21.4939 16.7347 21.5642 16.5907L21.406 16.4466C21.2479 16.2665 21.1424 16.0324 21.1424 15.7803C21.1424 15.5282 21.2479 15.2941 21.406 15.1321L21.9157 14.6279C22.2672 14.2497 22.8472 14.2497 23.1986 14.6279L23.3392 14.7719C23.4798 14.7179 23.6029 14.6639 23.7435 14.6099V14.3938C23.7435 13.8716 24.1477 13.4574 24.6398 13.4574H25.3428C25.8524 13.4574 26.2566 13.8716 26.2566 14.3938V14.6099C26.3972 14.6639 26.5203 14.7179 26.6433 14.7719L26.8015 14.6279C27.153 14.2677 27.7329 14.2677 28.0844 14.6279L28.5765 15.1321C28.9456 15.4922 28.9456 16.0864 28.5765 16.4466L28.4359 16.6087C28.4886 16.7347 28.5414 16.8608 28.5941 17.0048H28.805C29.3146 17.0048 29.7189 17.419 29.7189 17.9412V18.6435C29.7189 19.1657 29.3146 19.5798 28.805 19.5798H28.5941C28.5589 19.7239 28.5062 19.85 28.4359 19.994L28.5765 20.1381C28.928 20.4982 28.928 21.0925 28.5765 21.4526L28.0844 21.9568C27.7505 22.3169 27.153 22.3169 26.8015 21.9568L26.6433 21.8127C26.5203 21.8668 26.3972 21.9388 26.2566 21.9748V22.1909C26.2566 22.7131 25.8524 23.1273 25.3428 23.1273ZM24.9913 20.6063C23.7435 20.6063 22.7241 19.5798 22.7241 18.2833C22.7241 17.0048 23.7435 15.9784 24.9913 15.9784C26.2391 15.9784 27.2584 17.0048 27.2584 18.2833C27.2584 19.5798 26.2391 20.6063 24.9913 20.6063Z" fill="#FEFEFE"/>
<path fill-rule="evenodd" clip-rule="evenodd" d="M24.9913 40.0001C24.0247 40.0001 23.1284 39.6219 22.443 39.0097C22.6715 38.6495 22.9175 38.2534 22.9702 38.1813C23.4623 37.5691 24.2005 37.1909 24.9913 37.1909C25.8876 37.1909 26.6961 37.6411 27.1881 38.3974C27.2057 38.4515 27.3815 38.7756 27.5221 39.0277C26.8542 39.6399 25.9579 40.0001 24.9913 40.0001ZM21.9509 38.4695C21.4412 37.8032 21.1425 36.9569 21.1425 36.0565C21.1425 33.8776 22.8648 32.1129 24.9913 32.1129C27.1179 32.1129 28.8577 33.8776 28.8577 36.0565C28.8577 36.9749 28.5414 37.8212 28.0317 38.4875C27.9263 38.2894 27.8208 38.0913 27.8033 38.0733C27.399 37.407 26.8015 36.9208 26.0985 36.6687C26.3094 36.4166 26.4324 36.0745 26.4324 35.7324C26.4324 34.922 25.7822 34.2558 24.9913 34.2558C24.2005 34.2558 23.5678 34.922 23.5678 35.7324C23.5678 36.0745 23.6908 36.3986 23.9017 36.6687C23.2163 36.9028 22.6363 37.371 22.2321 38.0013C22.1969 38.0373 22.0915 38.2354 21.9509 38.4695ZM24.9913 34.9761C24.6047 34.9761 24.2708 35.3182 24.2708 35.7324C24.2708 36.1105 24.5695 36.4346 24.9386 36.4707H24.9913H25.044C25.4307 36.4346 25.7295 36.1105 25.7295 35.7324C25.7295 35.3182 25.3955 34.9761 24.9913 34.9761Z" fill="#FEFEFE"/>
<path fill-rule="evenodd" clip-rule="evenodd" d="M24.9912 26.5846C20.5448 26.5846 16.9069 22.8571 16.9069 18.3013C16.9069 13.7275 20.5448 10 24.9912 10C29.4552 10 33.0932 13.7275 33.0932 18.2833C33.0932 22.8571 29.4552 26.5846 24.9912 26.5846ZM24.9912 25.126C21.3181 25.126 18.3304 22.0648 18.3304 18.2833C18.3304 14.5198 21.3181 11.4586 24.9912 11.4586C28.6643 11.4586 31.652 14.5198 31.652 18.2833C31.652 22.0648 28.6643 25.126 24.9912 25.126Z" fill="#FEFEFE"/>
<path fill-rule="evenodd" clip-rule="evenodd" d="M34.9209 31.6807V30.6003H26.2039V31.6807C25.8172 31.5727 25.413 31.5006 24.9912 31.5006C24.5694 31.5006 24.1652 31.5727 23.7786 31.6807V30.6003H15.0615V31.6807C14.6749 31.5727 14.2707 31.5006 13.8489 31.5006C13.4271 31.5006 13.0229 31.5727 12.6362 31.6807V28.4754C12.6362 28.2773 12.7944 28.1153 12.9877 28.1153H23.7786V27.0889C24.1828 27.1609 24.587 27.1789 24.9912 27.1789C25.413 27.1789 25.8172 27.1609 26.2039 27.0889V28.1153H36.9948C37.1881 28.1153 37.3462 28.2773 37.3462 28.4754V31.6807C36.9596 31.5727 36.5554 31.5006 36.1336 31.5006C35.7118 31.5006 35.3076 31.5727 34.9209 31.6807Z" fill="#FEFEFE"/>
<path fill-rule="evenodd" clip-rule="evenodd" d="M13.8489 40.0001C12.8822 40.0001 12.0035 39.6399 11.3181 39.0277C11.4763 38.7396 11.6872 38.3794 11.7399 38.3074C12.2144 37.6051 13.0053 37.1909 13.8489 37.1909C14.7803 37.1909 15.6415 37.6951 16.0984 38.5055C16.116 38.5415 16.2742 38.8476 16.362 39.0457C15.6942 39.6399 14.8155 40.0001 13.8489 40.0001ZM10.8084 38.4695C10.2988 37.8032 10 36.9749 10 36.0565C10 33.8776 11.7223 32.1129 13.8489 32.1129C15.9754 32.1129 17.7153 33.8776 17.7153 36.0565C17.7153 36.9749 17.3989 37.8212 16.8893 38.5055C16.8014 38.3254 16.7135 38.1633 16.7135 38.1453C16.3093 37.443 15.6766 36.9208 14.9561 36.6687C15.167 36.4166 15.29 36.0745 15.29 35.7324C15.29 34.922 14.6397 34.2558 13.8489 34.2558C13.058 34.2558 12.4253 34.922 12.4253 35.7324C12.4253 36.0745 12.5483 36.3986 12.7592 36.6687C12.0562 36.9028 11.4587 37.389 11.0545 38.0373C11.0369 38.0733 10.9315 38.2714 10.8084 38.4695ZM13.8489 34.9761C13.4622 34.9761 13.1283 35.3182 13.1283 35.7324C13.1283 36.1105 13.4271 36.4346 13.7961 36.4707H13.8489H13.9016C14.2882 36.4346 14.587 36.1105 14.587 35.7324C14.587 35.3182 14.2531 34.9761 13.8489 34.9761Z" fill="#FEFEFE"/>
<path fill-rule="evenodd" clip-rule="evenodd" d="M36.1336 40.0001C35.167 40.0001 34.2707 39.6219 33.5853 39.0097C33.7083 38.8116 33.9192 38.4695 33.9368 38.4154C34.4289 37.6591 35.2373 37.1909 36.1336 37.1909C37.0827 37.1909 37.9263 37.6951 38.4008 38.5235C38.4008 38.5415 38.559 38.8476 38.6468 39.0457C37.979 39.6399 37.1003 40.0001 36.1336 40.0001ZM33.0932 38.4695C32.5836 37.8032 32.2848 36.9569 32.2848 36.0565C32.2848 33.8776 34.0071 32.1129 36.1336 32.1129C38.2602 32.1129 40.0001 33.8776 40.0001 36.0565C40.0001 36.9749 39.6837 37.8212 39.1565 38.5055C39.0862 38.3254 38.9983 38.1633 38.9983 38.1453C38.5941 37.443 37.9614 36.9208 37.2409 36.6687C37.4517 36.4166 37.5748 36.0745 37.5748 35.7324C37.5748 34.922 36.9245 34.2558 36.1336 34.2558C35.3428 34.2558 34.7101 34.922 34.7101 35.7324C34.7101 36.0745 34.8331 36.3986 35.044 36.6687C34.3059 36.9208 33.6908 37.443 33.2865 38.1453C33.269 38.1633 33.1811 38.3074 33.0932 38.4695ZM36.1336 34.9761C35.747 34.9761 35.4131 35.3182 35.4131 35.7324C35.4131 36.1105 35.7119 36.4346 36.0809 36.4707H36.1336H36.1864C36.573 36.4346 36.8718 36.1105 36.8718 35.7324C36.8718 35.3182 36.5379 34.9761 36.1336 34.9761Z" fill="#FEFEFE"/>
</svg>
