<svg width="50" height="50" viewBox="0 0 50 50" fill="none" xmlns="http://www.w3.org/2000/svg">
<rect width="50" height="50" rx="25" fill="#28098A"/>
<path d="M39.84 38.2859H11.0287V35.3952L16.9608 27.6679L22.8535 34.9446C22.9397 35.0507 23.0499 35.1347 23.175 35.1896C23.3001 35.2446 23.4366 35.2689 23.573 35.2606C23.7094 35.2523 23.8418 35.2116 23.9593 35.1418C24.0769 35.0721 24.1761 34.9753 24.2487 34.8596L31.9112 22.6379L36.1586 29.5704C36.2167 29.6681 36.2937 29.7533 36.385 29.8211C36.4763 29.8888 36.5802 29.9378 36.6906 29.965C36.8009 29.9923 36.9157 29.9974 37.028 29.98C37.1404 29.9626 37.2482 29.923 37.3451 29.8636C37.4421 29.8042 37.5263 29.7261 37.5928 29.6339C37.6594 29.5417 37.7069 29.4372 37.7327 29.3265C37.7585 29.2157 37.7621 29.101 37.7432 28.9888C37.7243 28.8767 37.6833 28.7695 37.6227 28.6733L32.6513 20.5592C32.5741 20.4358 32.4668 20.3338 32.3395 20.263C32.2122 20.1922 32.069 20.1548 31.9234 20.1542C31.7777 20.1546 31.6344 20.1919 31.5071 20.2628C31.3798 20.3336 31.2725 20.4356 31.1954 20.5592L23.4316 32.9308L17.6098 25.7422C17.5283 25.641 17.4248 25.5598 17.3073 25.5045C17.1898 25.4492 17.0612 25.4213 16.9313 25.423C16.8014 25.4246 16.6736 25.4558 16.5576 25.5141C16.4415 25.5723 16.3401 25.6562 16.2612 25.7594L11.0287 32.5764V10.8606C11.0287 10.6324 10.938 10.4135 10.7766 10.2521C10.6152 10.0907 10.3963 10 10.168 10C9.9398 10 9.7209 10.0907 9.5595 10.2521C9.39811 10.4135 9.30743 10.6324 9.30743 10.8606V39.1414C9.30743 39.3691 9.39789 39.5875 9.55891 39.7485C9.71993 39.9095 9.93831 40 10.166 40H39.8319C40.0601 40 40.2791 39.9093 40.4404 39.7479C40.6018 39.5865 40.6925 39.3676 40.6925 39.1394C40.6925 38.9111 40.6018 38.6922 40.4404 38.5308C40.2791 38.3694 40.0601 38.2788 39.8319 38.2788L39.84 38.2859Z" fill="white"/>
</svg>
