<svg width="50" height="50" viewBox="0 0 50 50" fill="none" xmlns="http://www.w3.org/2000/svg">
<rect width="50" height="50" rx="25" fill="#28098A"/>
<g clip-path="url(#clip0_581_1328)">
<path d="M14.9162 10.7771C14.7825 10.9773 14.6864 11.2042 14.6333 11.4448C14.5803 11.6855 14.5715 11.9352 14.6073 12.1796L16.9185 27.8193C16.9828 28.2621 17.1903 28.6653 17.5034 28.9562C17.8096 29.2411 18.2068 29.4087 18.627 29.4081H18.7804V29.414H21.0868L18.9526 35.9064C17.9409 35.4352 17.0121 34.8315 16.212 34.0972C15.8799 33.793 15.5657 33.4584 15.2729 33.0956C14.8016 32.5084 13.9815 32.4492 13.4428 32.9626C12.9036 33.4766 12.8493 34.3691 13.3207 34.9558C13.6909 35.4153 14.1015 35.8495 14.5443 36.2563C17.293 38.7787 21.1944 40.0264 25.0597 39.9994C28.9336 39.9719 32.815 38.6679 35.5137 36.0875C35.9318 35.6872 36.3278 35.2488 36.6959 34.7729C37.1565 34.1769 37.0855 33.2867 36.5382 32.7856C35.991 32.2839 35.1741 32.3613 34.7135 32.9573C34.4423 33.3078 34.1377 33.6436 33.8051 33.9612C33.3951 34.3539 32.9495 34.7096 32.4749 35.0302L30.8008 29.414H32.5352C33.0146 29.414 33.4489 29.2024 33.7626 28.8607C34.0758 28.519 34.2701 28.0461 34.2701 27.5239C34.2701 27.0017 34.0758 26.5288 33.7621 26.1871C33.4484 25.846 33.0146 25.6344 32.5352 25.6344H24.9198L26.4679 21.8942H31.2195C31.5036 21.8942 31.7603 21.7688 31.9459 21.5672C32.1316 21.365 32.2468 21.0848 32.2468 20.776C32.2468 20.4665 32.1316 20.1864 31.9459 19.9842C31.8505 19.8804 31.7373 19.798 31.6126 19.7419C31.488 19.6858 31.3544 19.657 31.2195 19.6572H19.2163L18.0238 11.5888C17.9495 11.076 17.6896 10.6429 17.3318 10.3599C17.148 10.2144 16.9396 10.1098 16.7187 10.0521C16.4977 9.99433 16.2685 9.98462 16.0441 10.0235C15.5732 10.1043 15.1761 10.3874 14.9162 10.7771ZM23.4588 12.8817L22.4627 12.591L20.8946 18.9357H21.9381L23.4588 12.8817ZM26.3049 18.3831C26.9119 18.5607 27.5377 18.168 27.7002 17.5063C27.8633 16.8447 27.5022 16.1631 26.8946 15.9867C26.2866 15.8097 25.6613 16.2023 25.4988 16.864C25.3363 17.5257 25.6979 18.2061 26.3049 18.3831ZM29.9619 18.9357L31.1781 13.9771L24.1212 11.9176L22.3879 18.9357H23.427L24.5555 14.3726C25.0575 14.5192 25.5768 14.1916 25.7113 13.6448L29.0369 14.6147C28.9024 15.1627 29.2016 15.7282 29.7042 15.8747L28.954 18.9357H29.9619ZM20.9662 36.6454L23.3452 29.414H28.5677L30.5657 36.0658C28.8706 36.7925 26.9646 37.1629 25.0494 37.1764C23.6616 37.1858 22.2749 37.0088 20.9662 36.6454ZM19.7259 21.8942H24.2181L22.6704 25.6344H20.0998L19.5472 21.8942H19.7259Z" fill="white"/>
</g>
<defs>
<clipPath id="clip0_581_1328">
<rect width="24" height="30" fill="white" transform="translate(13 10)"/>
</clipPath>
</defs>
</svg>
