<svg width="50" height="50" viewBox="0 0 50 50" fill="none" xmlns="http://www.w3.org/2000/svg">
<rect width="50" height="50" rx="25" fill="#28098A"/>
<g clip-path="url(#clip0_581_1214)">
<path fill-rule="evenodd" clip-rule="evenodd" d="M18.6894 22.7683C19.0828 22.7683 19.4674 22.885 19.7946 23.1036C20.1217 23.3223 20.3767 23.633 20.5272 23.9966C20.6778 24.3602 20.7172 24.7602 20.6404 25.1462C20.5637 25.5321 20.3742 25.8867 20.096 26.1649C19.8178 26.4432 19.4634 26.6327 19.0775 26.7095C18.6916 26.7863 18.2917 26.7469 17.9282 26.5963C17.5647 26.4457 17.254 26.1906 17.0354 25.8634C16.8169 25.5362 16.7002 25.1515 16.7002 24.758C16.7002 24.2303 16.9098 23.7242 17.2828 23.3511C17.6559 22.9779 18.1618 22.7683 18.6894 22.7683ZM25.6383 10.9546C28.3034 11.0931 30.8517 12.0928 32.9004 13.8035C34.9491 15.5142 36.3877 17.8435 37 20.4417L35.4111 22.3142L33.8831 20.4417H33.6757L32.0794 22.324L30.5442 20.4417H30.1634L28.5745 22.3142L27.049 20.4417H26.8464V20.471C26.8464 20.9129 26.473 21.2937 25.9287 21.4744V24.1428C25.4057 24.0036 24.8554 24.0036 24.3325 24.1428V21.4011C23.8931 21.2009 23.6002 20.8592 23.6002 20.471V20.4417H22.9607L21.4328 22.3142L19.8463 20.4417H19.4656L17.9303 22.324L16.3341 20.4417H16.1266L14.5987 22.3142L13 20.4417C13.6076 17.8659 15.027 15.5537 17.0486 13.8464C19.0702 12.139 21.5869 11.1269 24.2275 10.9595L24.9597 10L25.6285 10.9546H25.6383ZM29.5435 27.839C29.611 27.746 29.6966 27.6675 29.7952 27.6084C29.8937 27.5492 30.0032 27.5106 30.1171 27.4948C31.4355 27.2444 32.7893 27.2444 34.1077 27.4948C34.3213 27.531 34.5128 27.6481 34.6422 27.8219C35.1549 28.5315 35.5833 29.2984 35.9187 30.107C36.2666 30.9435 36.5259 31.8141 36.6925 32.7046C36.7133 32.8159 36.712 32.9301 36.6887 33.0409C36.6654 33.1517 36.6205 33.2567 36.5566 33.3501C36.4927 33.4435 36.411 33.5234 36.3162 33.5853C36.2214 33.6471 36.1154 33.6896 36.0042 33.7105C35.8929 33.7313 35.7787 33.73 35.668 33.7067C35.5573 33.6834 35.4522 33.6385 35.3588 33.5745C35.2654 33.5106 35.1856 33.4289 35.1238 33.3341C35.0619 33.2393 35.0194 33.1333 34.9986 33.022C34.8542 32.2495 34.6292 31.4942 34.3274 30.7686C34.2834 30.6661 34.2395 30.566 34.1931 30.4659L35.4916 36.623H34.1809V39.1498C34.1701 39.3845 34.0672 39.6054 33.8944 39.7645C33.7216 39.9236 33.493 40.008 33.2583 39.9994C33.0243 40.0073 32.7966 39.9225 32.6247 39.7634C32.4529 39.6043 32.3507 39.3838 32.3406 39.1498V36.6279H31.9013V39.1498C31.8905 39.384 31.7878 39.6046 31.6156 39.7636C31.4433 39.9226 31.2154 40.0074 30.9811 39.9994C30.747 40.0073 30.5193 39.9225 30.3475 39.7634C30.1756 39.6043 30.0735 39.3838 30.0634 39.1498V36.6279H28.7527L30.0853 30.3072C30.0097 30.461 29.9389 30.6197 29.8705 30.7955C29.568 31.5208 29.343 32.2762 29.1993 33.0489C29.167 33.2211 29.0829 33.3794 28.9581 33.5024C28.8333 33.6255 28.6739 33.7075 28.5013 33.7373C28.4035 33.8004 28.2915 33.8379 28.1754 33.8461C28.0594 33.8543 27.9431 33.8331 27.8375 33.7844C27.7318 33.7357 27.6401 33.6611 27.571 33.5675C27.5019 33.4739 27.4575 33.3644 27.442 33.249C27.356 32.6212 27.2038 32.0041 26.988 31.4083C26.9392 31.274 26.8879 31.1422 26.8318 31.0128V38.4223C26.8296 38.5162 26.8089 38.6088 26.7709 38.6948C26.7329 38.7807 26.6783 38.8583 26.6103 38.9231C26.5423 38.988 26.4622 39.0388 26.3746 39.0727C26.2869 39.1065 26.1935 39.1228 26.0996 39.1205C26.0056 39.1228 25.9122 39.1065 25.8246 39.0727C25.7369 39.0388 25.6568 38.988 25.5888 38.9231C25.5208 38.8583 25.4663 38.7807 25.4283 38.6948C25.3903 38.6088 25.3696 38.5162 25.3673 38.4223V34.6162H24.9158V38.4076C24.9136 38.5016 24.8929 38.5942 24.8549 38.6801C24.8169 38.766 24.7623 38.8437 24.6943 38.9085C24.6263 38.9733 24.5462 39.0241 24.4586 39.058C24.3709 39.0919 24.2775 39.1081 24.1836 39.1059C23.9941 39.1098 23.8107 39.0386 23.6735 38.9078C23.5363 38.777 23.4565 38.5972 23.4513 38.4076V31.4839C23.3088 31.8894 23.1963 32.3047 23.1145 32.7266V32.7779C23.1407 32.9655 23.1028 33.1564 23.0071 33.3198C22.9739 33.4452 22.9063 33.5587 22.8119 33.6475C22.7175 33.7363 22.6001 33.7968 22.473 33.8223C22.3459 33.8477 22.2142 33.837 22.0929 33.7913C21.9716 33.7457 21.8655 33.6669 21.7867 33.564C21.6948 33.498 21.6174 33.4139 21.559 33.317C21.5007 33.22 21.4627 33.1122 21.4475 33C21.3396 32.2208 21.1506 31.4549 20.8837 30.7149C20.8324 30.5758 20.7811 30.4415 20.7274 30.3097V34.3843V39.1498C20.7167 39.384 20.614 39.6046 20.4418 39.7636C20.2695 39.9226 20.0416 40.0074 19.8073 39.9994C19.573 40.0074 19.345 39.9226 19.1728 39.7636C19.0005 39.6046 18.8979 39.384 18.8871 39.1498V34.6577H18.5869V39.1498C18.5761 39.384 18.4735 39.6046 18.3012 39.7636C18.129 39.9226 17.901 40.0074 17.6667 39.9994C17.4327 40.0073 17.205 39.9225 17.0331 39.7634C16.8613 39.6043 16.7592 39.3838 16.749 39.1498V30.0973C16.6636 30.2926 16.5806 30.4952 16.5049 30.7052C16.236 31.4454 16.047 32.2123 15.9411 32.9927C15.9251 33.102 15.8877 33.2071 15.8311 33.302C15.7744 33.3969 15.6997 33.4797 15.611 33.5456C15.5224 33.6116 15.4217 33.6595 15.3146 33.6865C15.2075 33.7135 15.0961 33.7192 14.9868 33.7031C14.8775 33.6871 14.7724 33.6497 14.6776 33.5931C14.5827 33.5364 14.5 33.4616 14.434 33.373C14.368 33.2843 14.3202 33.1836 14.2932 33.0764C14.2662 32.9693 14.2605 32.8579 14.2765 32.7486C14.4007 31.8566 14.6183 30.9803 14.9258 30.1339C15.2203 29.3123 15.6102 28.5281 16.0876 27.7975C16.1605 27.6876 16.258 27.5961 16.3724 27.5305C16.4868 27.4648 16.6149 27.4267 16.7466 27.4191V27.3922C17.8327 27.1261 19.7219 27.1481 20.7421 27.4264V27.4435C20.8581 27.4632 20.9687 27.5071 21.0667 27.5722C21.1646 27.6374 21.2478 27.7225 21.3108 27.8219C21.7875 28.5533 22.1782 29.3373 22.475 30.1583V30.1876C22.6571 29.7895 22.8693 29.406 23.1096 29.0401C23.1986 28.8996 23.3357 28.7963 23.4953 28.7496C23.8297 28.5055 26.4852 28.5738 26.822 28.7179C26.9295 28.7271 27.0333 28.7612 27.1253 28.8176C27.2172 28.8739 27.2947 28.951 27.3517 29.0426C27.6571 29.5055 27.9186 29.9959 28.1327 30.5074C28.1815 30.3805 28.2303 30.2633 28.2816 30.1339C28.616 29.3247 29.0444 28.5577 29.5581 27.8488L29.5435 27.839ZM32.0697 22.7683C32.4633 22.7673 32.8484 22.8832 33.1761 23.1012C33.5039 23.3193 33.7596 23.6297 33.9109 23.9932C34.0622 24.3567 34.1023 24.7569 34.0261 25.1432C33.9499 25.5295 33.7609 25.8845 33.4829 26.1632C33.2049 26.442 32.8504 26.6319 32.4644 26.7091C32.0784 26.7863 31.6782 26.7472 31.3144 26.5967C30.9507 26.4463 30.6397 26.1912 30.4209 25.8639C30.2021 25.5366 30.0853 25.1517 30.0853 24.758C30.085 24.4966 30.1362 24.2377 30.2361 23.9962C30.3359 23.7547 30.4825 23.5352 30.6672 23.3504C30.852 23.1655 31.0714 23.019 31.3129 22.9191C31.5544 22.8192 31.8132 22.768 32.0745 22.7683H32.0697ZM25.1623 24.9875C25.4837 24.9875 25.7979 25.083 26.0651 25.2618C26.3322 25.4406 26.5402 25.6948 26.6628 25.992C26.7853 26.2892 26.8169 26.6161 26.7535 26.9313C26.6901 27.2465 26.5345 27.5358 26.3065 27.7624C26.0785 27.9891 25.7884 28.143 25.4729 28.2045C25.1574 28.266 24.8308 28.2325 24.5344 28.1081C24.238 27.9837 23.9852 27.7741 23.808 27.5058C23.6308 27.2376 23.5373 26.9227 23.5392 26.6012C23.5392 26.1707 23.7102 25.7577 24.0146 25.4532C24.319 25.1488 24.7318 24.9777 25.1623 24.9777V24.9875Z" fill="white"/>
</g>
<defs>
<clipPath id="clip0_581_1214">
<rect width="24" height="30" fill="white" transform="translate(13 10)"/>
</clipPath>
</defs>
</svg>
