<svg width="50" height="50" viewBox="0 0 50 50" fill="none" xmlns="http://www.w3.org/2000/svg">
<rect width="50" height="50" rx="25" fill="#28098A"/>
<path fill-rule="evenodd" clip-rule="evenodd" d="M23.4801 33.3161H11.8631C11.5722 33.3161 11.3362 33.0774 11.3362 32.7816V29.6414H27.6999V30.8484C25.9432 30.966 24.4075 31.9175 23.4801 33.3161ZM27.4007 18.9012C27.2993 18.9012 27.1963 18.8709 27.1099 18.8121C26.9619 18.7129 26.8739 18.5465 26.8739 18.3683V16.857H25.8351C25.5443 16.857 25.3083 16.6183 25.3083 16.3224V10.5346C25.3083 10.2387 25.5443 10 25.8351 10H37.0068C37.2977 10 37.5337 10.2387 37.5337 10.5346V16.3224C37.5337 16.6183 37.2977 16.857 37.0068 16.857H32.3101L27.6051 18.8591C27.5403 18.8877 27.4705 18.9012 27.4007 18.9012ZM35.0391 14.6246C35.1903 14.6246 35.3133 14.5002 35.3133 14.3472C35.3133 14.1942 35.1903 14.0698 35.0391 14.0698H27.8029C27.6517 14.0698 27.5287 14.1942 27.5287 14.3472C27.5287 14.5002 27.6517 14.6246 27.8029 14.6246H35.0391ZM35.0391 12.7872C35.1903 12.7872 35.3133 12.6628 35.3133 12.5098C35.3133 12.3568 35.1903 12.2324 35.0391 12.2324H27.8029C27.6517 12.2324 27.5287 12.3568 27.5287 12.5098C27.5287 12.6628 27.6517 12.7872 27.8029 12.7872H35.0391ZM39.4715 40H36.6545V36.6362C36.6545 36.4832 36.5332 36.3588 36.3803 36.3588C36.229 36.3588 36.106 36.4832 36.106 36.6362V40H26.947V36.6362C26.947 36.4832 26.824 36.3588 26.6728 36.3588C26.5199 36.3588 26.3985 36.4832 26.3985 36.6362V40H23.5815C23.289 40 23.053 39.7613 23.053 39.4671V36.4194C23.053 33.6238 25.3033 31.3493 28.0671 31.3493H28.6837L29.2937 30.297C28.4128 29.6178 27.8411 28.5453 27.8411 27.34V26.3331C27.1747 25.2925 26.8988 24.1931 27.045 23.1441C27.1863 22.1439 27.7048 21.2496 28.5092 20.6276C28.9347 20.2981 29.5014 20.2443 30.0017 20.1989C30.2393 20.1754 30.4637 20.1552 30.6249 20.1081C31.5739 19.8375 32.9483 19.5904 33.9039 20.5805C34.1815 20.868 34.3161 21.1672 34.4457 21.4547C34.582 21.7589 34.7117 22.0447 35.0291 22.3742C36.0545 23.4417 36.1077 24.8386 35.182 26.3213V27.34C35.182 28.5369 34.6202 29.601 33.7494 30.2802L34.3693 31.3493H34.9859C37.7497 31.3493 40 33.6238 40 36.4194V39.4671C40 39.7613 39.764 40 39.4715 40ZM29.7873 31.5544C30.6432 31.7965 31.1019 31.9175 31.5007 31.9175C31.9046 31.9175 32.3417 31.7982 33.2109 31.5611L33.2608 31.5477L32.8303 30.8047C32.4215 30.9644 31.9761 31.0535 31.5124 31.0535C31.057 31.0535 30.6199 30.9677 30.2161 30.8147L29.7873 31.5544ZM34.1283 26.1717V26.17C34.115 24.958 32.6059 24.0687 31.2598 24.03C30.5966 24.0099 29.041 24.183 28.8965 26.1919V27.34C28.8965 28.3251 29.4316 29.1858 30.2227 29.6414C30.2393 29.6498 30.2543 29.6582 30.2709 29.6666C30.2775 29.67 30.2825 29.675 30.2892 29.6784C30.6548 29.875 31.0703 29.986 31.5124 29.986C31.9594 29.986 32.3816 29.8717 32.7522 29.67C32.7589 29.6649 32.7672 29.6599 32.7755 29.6548C32.7904 29.6464 32.8037 29.638 32.8187 29.6313C33.6015 29.174 34.1283 28.3184 34.1283 27.34V26.1717ZM16.9187 20.6091C16.8838 20.5234 16.8705 20.4275 16.8822 20.3351L16.8207 19.8694H17.1032L17.5453 19.1079C16.8257 18.5246 16.3653 17.6286 16.3653 16.6267V15.8147C15.0839 13.7958 15.7587 11.8996 16.9553 10.9716C17.512 10.5413 18.3015 10.6522 18.7436 10.5262C19.2106 10.3917 20.6349 9.98487 21.5589 10.9431C22.0409 11.4423 21.991 11.9097 22.4946 12.4342C23.3605 13.3352 23.4137 14.5573 22.6475 15.8047V16.6267C22.6475 17.6219 22.1921 18.5112 21.4825 19.0945L21.9329 19.8694H22.2021L22.1473 20.2998C22.1705 20.4141 22.1539 20.5301 22.1057 20.6326L21.9644 21.7774L20.6266 22.043L20.811 20.6831L20.821 20.6562C20.8626 20.5402 20.8243 20.4091 20.7263 20.3368L20.6947 20.3116L20.9008 20.1989L20.5634 19.619C20.2327 19.7383 19.877 19.8039 19.5064 19.8039C19.1424 19.8039 18.7934 19.74 18.4677 19.6257L18.1353 20.1989L18.3414 20.3132L18.3115 20.3334C18.2117 20.4074 18.1718 20.5385 18.2151 20.6562L18.225 20.6831L18.4095 22.043L17.0733 21.7774L16.9187 20.6091ZM18.4743 18.4607C18.4893 18.4674 18.5042 18.4758 18.5192 18.4843L18.5342 18.4943C18.825 18.649 19.1557 18.7364 19.5064 18.7364C19.8621 18.7364 20.1978 18.6456 20.4919 18.4859C20.4986 18.4826 20.5052 18.4775 20.5119 18.4742C20.5252 18.4658 20.5368 18.459 20.5501 18.4523C21.1733 18.0875 21.5922 17.405 21.5922 16.6267V15.6534C21.5805 14.6952 20.3723 13.9942 19.2937 13.9639C18.7668 13.9471 17.5353 14.0849 17.419 15.6735V16.6267C17.419 17.4117 17.8444 18.0976 18.4743 18.4607ZM12.3832 25.6657V24.1763C12.3832 21.9287 14.0951 20.0779 16.2689 19.8862L16.5548 22.0464C16.5697 22.1658 16.6578 22.2599 16.7741 22.2834L18.4195 22.6095C18.4361 22.6146 18.4544 22.6163 18.4727 22.6163C18.4776 22.6163 18.481 22.6163 18.486 22.6146L18.5823 23.324C18.5807 23.329 18.5807 23.3341 18.579 23.3391L18.3148 25.6657H15.7554V25.0034C15.7554 24.8504 15.6324 24.726 15.4811 24.726C15.3299 24.726 15.2069 24.8504 15.2069 25.0034V25.6657H12.3832ZM18.8765 20.6074L19.518 20.9621L20.1629 20.6057L20.1911 20.6259L20.0565 23.0937H18.9779L18.8466 20.6293L18.8765 20.6074ZM22.7505 19.8846C24.9327 20.0695 26.6528 21.9237 26.6528 24.1763V25.6657H23.8292V25.0034C23.8292 24.8504 23.7062 24.726 23.5549 24.726C23.4037 24.726 23.2807 24.8504 23.2807 25.0034V25.6657H20.7196L20.4554 23.3391C20.4554 23.3341 20.4537 23.329 20.4537 23.324L20.5484 22.6146C20.5534 22.6163 20.5584 22.6163 20.5634 22.6163C20.5817 22.6163 20.5983 22.6146 20.6166 22.6095L22.2619 22.2834C22.3766 22.2599 22.4663 22.1658 22.4796 22.0481L22.7505 19.8846ZM20.1679 25.6657H18.8665L19.0959 23.6484H19.9385L20.1679 25.6657ZM27.7281 29.1287H10.5268C10.236 29.1287 10 28.8899 10 28.5958V26.7113C10 26.4154 10.236 26.1767 10.5268 26.1767H27.1614C27.2162 26.2793 27.2744 26.3818 27.3359 26.481V27.34C27.3359 27.9788 27.4755 28.5857 27.7281 29.1287Z" fill="white"/>
</svg>
