<svg width="50" height="50" viewBox="0 0 50 50" fill="none" xmlns="http://www.w3.org/2000/svg">
<rect width="50" height="50" rx="25" fill="#28098A"/>
<g clip-path="url(#clip0_581_571)">
<path d="M15.2566 12.7613H17.3302V16.1387C17.3302 17.0778 17.688 17.9075 18.265 18.4849C18.7529 18.9726 19.4018 19.2759 20.0954 19.2759C20.789 19.2759 21.438 18.9726 21.9258 18.4849C22.5033 17.9075 22.8612 17.0778 22.8612 16.1387V12.7613H27.0477V16.1387C27.0477 17.0778 27.4055 17.9075 27.983 18.4849C28.4704 18.9726 29.1193 19.2759 29.8129 19.2759C30.5065 19.2759 31.156 18.9726 31.6438 18.4849C32.2208 17.9075 32.5787 17.0778 32.5787 16.1387V12.7613H34.7434C35.978 12.7613 36.9916 13.9986 36.9916 15.5057V20.7069V21.8791V37.2551C36.9916 38.0104 36.7383 38.6966 36.3311 39.1937C35.9224 39.6903 35.3602 40 34.7434 40H15.2566C14.6402 40 14.0786 39.6908 13.6704 39.1937C13.2617 38.6937 13.0084 38.008 13.0084 37.2556V21.8791V20.7069V15.5057C13.0084 13.9986 14.0215 12.7613 15.2566 12.7613ZM23.9505 34.5101C23.3783 34.4615 22.6492 34.2894 22.088 34.1055V31.9566C22.8329 32.0304 24.6676 32.2213 25.3439 32.0345C25.8514 31.894 25.7953 30.9156 25.4609 30.7932C25.0585 30.6404 24.2162 30.8236 23.5389 30.5842C23.1931 30.4618 22.9015 30.2773 22.6636 30.0308C22.4208 29.7779 22.2391 29.443 22.1196 29.0267C22.0031 28.6215 21.9445 28.139 21.9445 27.5798V26.8432C21.9445 25.2688 22.6559 24.3307 23.9505 24.0667V22.6901H25.7953V24.0228C26.3675 24.0784 27.0793 24.257 27.6473 24.425V26.5774C26.8731 26.4943 25.4048 26.325 24.6705 26.4878C24.6052 26.5025 24.5462 26.5247 24.4963 26.5534C24.1946 26.7279 24.2066 27.7344 24.576 27.8539C24.8177 27.9311 25.3132 27.8902 25.5775 27.8902C25.8447 27.8902 26.0927 27.9224 26.32 27.985C26.5498 28.0488 26.7575 28.1454 26.9417 28.2737C27.7144 28.8112 28.055 29.7592 28.055 30.8061V31.5433C28.055 31.9806 28.0228 32.3712 27.9595 32.7125C27.7072 34.0669 26.8467 34.359 25.7953 34.4996V35.9646H23.9505V34.5101ZM28.7275 11.0862C28.7275 10.4872 29.2129 10 29.8129 10C30.4135 10 30.8989 10.4872 30.8989 11.0862V16.1387C30.8989 16.7382 30.4135 17.2248 29.8129 17.2248C29.2129 17.2248 28.7275 16.7382 28.7275 16.1387V11.0862ZM19.01 11.0862C19.01 10.4872 19.4954 10 20.0954 10C20.6955 10 21.1814 10.4872 21.1814 11.0862V16.1387C21.1814 16.7382 20.6955 17.2248 20.0954 17.2248C19.4954 17.2248 19.01 16.7382 19.01 16.1387V11.0862ZM15.9766 38.5344H34.0229C34.9957 38.5344 35.7914 37.5601 35.7914 36.3762V20.7069H14.2085V36.3768C14.2085 37.563 15.0043 38.5344 15.9766 38.5344Z" fill="white"/>
</g>
<defs>
<clipPath id="clip0_581_571">
<rect width="24" height="30" fill="white" transform="translate(13 10)"/>
</clipPath>
</defs>
</svg>
