<svg width="185" height="141" viewBox="0 0 185 141" fill="none" xmlns="http://www.w3.org/2000/svg">
<rect x="0.226562" y="0.0010376" width="184.144" height="140.481" rx="15.1871" fill="white"/>
<path d="M106 101.5V94.5001C106 90.787 104.525 87.2261 101.899 84.6006C99.274 81.9751 95.713 80.5001 92 80.5001H71C67.287 80.5001 63.726 81.9751 61.1005 84.6006C58.475 87.2261 57 90.787 57 94.5001V101.5" stroke="#28098A" stroke-width="8" stroke-linecap="round" stroke-linejoin="round"/>
<path d="M81.5 66.5001C89.232 66.5001 95.5 60.232 95.5 52.5001C95.5 44.7681 89.232 38.5001 81.5 38.5001C73.768 38.5001 67.5 44.7681 67.5 52.5001C67.5 60.232 73.768 66.5001 81.5 66.5001Z" stroke="#28098A" stroke-width="8" stroke-linecap="round" stroke-linejoin="round"/>
<path d="M127 101.5V94.5001C126.998 91.3981 125.965 88.3848 124.065 85.9332C122.164 83.4816 119.503 81.7306 116.5 80.9551" stroke="#28098A" stroke-width="8" stroke-linecap="round" stroke-linejoin="round"/>
<path d="M106 38.9551C109.011 39.7261 111.681 41.4775 113.587 43.9332C115.493 46.3888 116.527 49.409 116.527 52.5176C116.527 55.6262 115.493 58.6464 113.587 61.102C111.681 63.5576 109.011 65.309 106 66.0801" stroke="#28098A" stroke-width="8" stroke-linecap="round" stroke-linejoin="round"/>
</svg>
